<svg xmlns="http://www.w3.org/2000/svg" viewBox="0 0 24 24" fill="none" stroke="currentColor" stroke-width="2" stroke-linecap="round" stroke-linejoin="round">
  <path d="M10 5.172C10 3.782 8.423 2.679 6.5 3c-2.823.47-4.113 6.006-4 7 .137 1.217 1.243 1.264 1.5 0 .549-2.655 2-4 3-2s1.986 5.293 1 8c-.986 2.707-4 5-4 5"/>
  <path d="M14.267 5.172c0-1.39 1.577-2.493 3.5-2.172 2.823.47 4.113 6.006 4 7-.137 1.217-1.243 1.264-1.5 0-.549-2.655-2-4-3-2s-1.986 5.293-1 8c.986 2.707 3.5 5 3.5 5"/>
  <path d="M8 14v.5M16 14v.5"/>
</svg>
